<svg xmlns="http://www.w3.org/2000/svg" xmlns:xlink="http://www.w3.org/1999/xlink" width="857" height="707" viewBox="0 0 857 707">
  <defs>
    <clipPath id="clip-info">
      <rect width="857" height="707"/>
    </clipPath>
  </defs>
  <g id="info" clip-path="url(#clip-info)">
    <g id="Group_13" data-name="Group 13" transform="translate(26 53.07)">
      <path id="Path_1" data-name="Path 1" d="M29.994,753.5C11.941,737.6,4.791,726.7.447,718.039c-4.343-8.687,24.642-11.08,30.906-10.46,8.066.768,18.319,2.689,18.319,2.689Z" transform="translate(-0.006 -504.688)" fill="#110580"/>
      <path id="Path_2" data-name="Path 2" d="M363.285,896.787c-2.689-.68-17.344-9.573-20.8-16.4-7.15-14.33-34.984-10.667-34.984-10.667L367.274,805.9" transform="translate(-216.644 -574.022)" fill="#110580"/>
      <path id="Path_3" data-name="Path 3" d="M273.2,566.888c4.875-23.549,10.873-35.131,16.251-43.168,5.378-8.066,21.422,16.192,24.376,21.688,3.516,6.471,8.687,17.137,8.687,17.137Z" transform="translate(-192.479 -374.071)" fill="#110580"/>
      <path id="Path_4" data-name="Path 4" d="M691.711,137.711c-10.46,10.46-18.94,23.076-28.986,34.009-5.909,6.412-18.733,19.412-16.458,2.482,2.837-21.481,22.042-40.834,32.029-59.3,10.962-20.181,19.147-44.764,11.494-67.486-7.8-23.106-45.325-39.623-58.74-11.405-7.978,16.871,3.723,33.6,22.367,31.2.886-.148,1.8-.207,2.689-.355-3.782-.148-7.564-.207-11.376-.355,3.723.827.886-3.457.414.975-.62,5.289-.059,10.253-1.3,15.571-2.541,10.962-7.564,21.067-12.587,31.054-10.253,20.594-25.824,45.03-21.688,69.051,4.078,23.815,27.065,41.307,50.88,31.32,22.869-9.573,42.016-43.582,47.659-66.6,2.334-9.13-9.041-17.521-16.4-10.164Z" transform="translate(-428.98 -21.126)" fill="#110580"/>
      <path id="Path_5" data-name="Path 5" d="M216.018,660.6c14.6,26.445,15.01,54.455-28.424,78.211-39.652,21.688-66.717,8.953-81.314-17.492s-1.861-61.428,28.424-78.211C164.99,626.386,201.422,634.186,216.018,660.6Z" transform="translate(-70.619 -453.129)" fill="#110580"/>
      <path id="Path_6" data-name="Path 6" d="M282.887,860.231A21.788,21.788,0,0,0,272.28,866.7a2.194,2.194,0,0,0-.207,2.127,2.1,2.1,0,0,0,1.8,1.241,1.142,1.142,0,0,1,.68.148c-.561-.207.059,0,.207.059a4.327,4.327,0,0,1,.975.354c.148.059.355.148.473.207.059,0,.059.059.148.059.266.148.561.354.827.473,1.3.827,2.63,1.655,3.989,2.423a.6.6,0,0,0,.266.148h.059c.059,0,.059,0,.148.059.059,0,.059,0,.148.059a2.258,2.258,0,0,0,2.423-1.182.281.281,0,0,0,.059-.207h0a1.394,1.394,0,0,0,.059-1.093,1.381,1.381,0,0,1-.059-.473h0v-.059a5.39,5.39,0,0,1,.148-1.182,1.587,1.587,0,0,1,.148-.62c0-.059.059-.207.059-.266a6.774,6.774,0,0,0,.266-1.3c.414-1.8.975-3.782.561-5.643A2.233,2.233,0,0,0,282.887,860.231Zm1.655,8.657h0C284.6,868.563,284.542,868.77,284.542,868.888Z" transform="translate(-191.559 -612.25)" fill="#787ccb"/>
      <g id="Group_10" data-name="Group 10" transform="translate(92.244 207.643)">
        <g id="Group_9" data-name="Group 9">
          <path id="Path_7" data-name="Path 7" d="M337.049,724a.824.824,0,0,1,.68,1.034c-1.655,5.289-3.161,11.7-5.909,16.192-2.955,4.757-7.446,7.357-12.587,8.953a43.49,43.49,0,0,1-6.057,1.093.9.9,0,0,1-.975-.827,33.113,33.113,0,0,1,6.264-18.26C322.246,727.107,330.371,723.118,337.049,724Z" transform="translate(-312.2 -723.881)" fill="#fff"/>
        </g>
        <path id="Path_8" data-name="Path 8" d="M342.032,756.348a11.3,11.3,0,0,0-1.8-3.25,12.926,12.926,0,0,0-2.837-2.689,8.968,8.968,0,0,0-5.023-2.009,5.028,5.028,0,0,0-2.689.886,3.381,3.381,0,0,0-1.389,2.216,4.253,4.253,0,0,0,.059,2.275,13.094,13.094,0,0,0,1.507,3.25,14.166,14.166,0,0,0,6.737,5.289,4.948,4.948,0,0,0,2.9,0,4.373,4.373,0,0,0,2.9-4.077A3.919,3.919,0,0,0,342.032,756.348Z" transform="translate(-323.447 -741.155)" fill="#787ccb"/>
      </g>
      <g id="Group_12" data-name="Group 12" transform="translate(39.8 241.99)">
        <g id="Group_11" data-name="Group 11">
          <path id="Path_9" data-name="Path 9" d="M167.237,843.841a.753.753,0,0,1,.207,1.182,42.543,42.543,0,0,1-8.6,8.332,20.044,20.044,0,0,1-12.173,3.871c-4.137-.207-7.978-2.009-11.582-3.989a.787.787,0,0,1-.266-1.093c3.516-5.023,8.273-10.046,14.124-11.494C154.768,839.143,161.8,841.093,167.237,843.841Z" transform="translate(-134.708 -840.125)" fill="#fff"/>
        </g>
        <path id="Path_10" data-name="Path 10" d="M180.227,846.01a8.372,8.372,0,0,0-2.748-4.4,4.216,4.216,0,0,0-6,.975,8.657,8.657,0,0,0-1.093,4.136,14.926,14.926,0,0,0,2.068,8.539,5.019,5.019,0,0,0,2.216,1.8,3.989,3.989,0,0,0,4.048-.68,7.378,7.378,0,0,0,1.389-2.423,11.229,11.229,0,0,0,.68-3.93A9.3,9.3,0,0,0,180.227,846.01Z" transform="translate(-159.812 -840.581)" fill="#787ccb"/>
      </g>
    </g>
    <path id="Path_11" data-name="Path 11" d="M1632.979,1895.589A13.235,13.235,0,0,0,1644,1874.995c-9.426-13.828-27.745-23.195-48.9-23.195-21.067,0-39.446,9.366-48.9,23.195-6,8.746.414,20.594,11.021,20.594Z" transform="translate(-1061.719 -1257.82)" fill="#c5c6e3"/>
    <g id="Group_14" data-name="Group 14" transform="translate(150.598 165.045)">
      <path id="Path_12" data-name="Path 12" d="M881.068,709.34H445.249A23.632,23.632,0,0,1,421.7,685.791V423.649A23.632,23.632,0,0,1,445.249,400.1H881.068a23.632,23.632,0,0,1,23.549,23.549v262.23A23.613,23.613,0,0,1,881.068,709.34Z" transform="translate(-421.7 -400.1)" fill="#c5c6e3"/>
      <path id="Path_13" data-name="Path 13" d="M916.542,693.639H484.032a9.672,9.672,0,0,1-9.632-9.632V455.932a9.672,9.672,0,0,1,9.632-9.632h432.51a9.672,9.672,0,0,1,9.632,9.632V684.065A9.738,9.738,0,0,1,916.542,693.639Z" transform="translate(-458.829 -432.649)" fill="#e8eaf7"/>
      <path id="Path_14" data-name="Path 14" d="M1125.223,1510.4H961l20.3-63.7h123.536Z" transform="translate(-801.653 -1137.46)" fill="#c5c6e3"/>
      <path id="Path_15" data-name="Path 15" d="M1057.634,1607.8H817.564a6.286,6.286,0,0,0-6.264,6.264v3.516a6.286,6.286,0,0,0,6.264,6.264h240.07a6.286,6.286,0,0,0,6.264-6.264v-3.516A6.211,6.211,0,0,0,1057.634,1607.8Z" transform="translate(-696.185 -1250.96)" fill="#c5c6e3"/>
      <ellipse id="Ellipse_31" data-name="Ellipse 31" cx="12.794" cy="12.794" rx="12.794" ry="12.794" transform="translate(222.514 278.236) rotate(-22.5)" fill="#e8eaf7"/>
    </g>
    <g id="Group_15" data-name="Group 15" transform="translate(430.694 46.83)">
      <rect id="Rectangle_22" data-name="Rectangle 22" width="12.735" height="258.36" transform="translate(132.178 73.929) rotate(-59.655)" fill="#676bc4"/>
      <rect id="Rectangle_23" data-name="Rectangle 23" width="276.531" height="12.735" transform="translate(231.494 461.417) rotate(-64.329)" fill="#676bc4"/>
      <path id="Path_16" data-name="Path 16" d="M1483.223,159.256a84.93,84.93,0,0,0-112.367,24.317,6.562,6.562,0,0,0,2.068,9.426L1507.6,272.038a6.567,6.567,0,0,0,9.219-2.837A84.992,84.992,0,0,0,1483.223,159.256Z" transform="translate(-1369.663 -103.977)" fill="#2b31ba"/>
      <path id="Path_17" data-name="Path 17" d="M1758.425,4.262a30.854,30.854,0,0,0-40.893,8.894,2.378,2.378,0,0,0,.768,3.457l49.019,28.779a2.443,2.443,0,0,0,3.368-1.034A31,31,0,0,0,1758.425,4.262Z" transform="translate(-1614.431 -0.01)" fill="#2b31ba"/>
      <ellipse id="Ellipse_32" data-name="Ellipse 32" cx="21.422" cy="21.422" rx="21.422" ry="21.422" transform="translate(341.221 180.116)" fill="#2b31ba"/>
      <rect id="Rectangle_24" data-name="Rectangle 24" width="50.673" height="61.547" transform="translate(77.584 56.788) rotate(-59.655)" fill="#2b31ba"/>
      <path id="Path_18" data-name="Path 18" d="M2056.63,1632.981H1888.743a6.917,6.917,0,0,1-6.944-6.944v-.207a27.364,27.364,0,0,1,27.331-27.331h127.112a27.364,27.364,0,0,1,27.331,27.331v.207A6.936,6.936,0,0,1,2056.63,1632.981Z" transform="translate(-1730.478 -1126.193)" fill="#2b31ba"/>
      <path id="Path_19" data-name="Path 19" d="M2134.639,1549.263H2055.6v-7.032a16.91,16.91,0,0,1,16.931-16.93h45.089a16.91,16.91,0,0,1,16.93,16.93v7.032Z" transform="translate(-1852.926 -1074.621)" fill="#2b31ba"/>
    </g>
    <g id="Group_19" data-name="Group 19" transform="translate(690.593 382.2)">
      <g id="Group_16" data-name="Group 16" transform="translate(57.042 7.145)">
        <path id="Path_20" data-name="Path 20" d="M2508.956,1284.956l-1.3-.266a6.37,6.37,0,0,0-7.091,3.782l-8.6,23.963c-.147.354-.147.68-.266.975a21.315,21.315,0,0,0,10.194,4.609,21.978,21.978,0,0,0,9.987-.62c0-.266.147-.621.147-.886l1.921-25.352A6.176,6.176,0,0,0,2508.956,1284.956Z" transform="translate(-2477.112 -1247.527)" fill="#d7d7e6"/>
        <path id="Path_21" data-name="Path 21" d="M2529.007,1160.311a2.189,2.189,0,0,1,3.782,0c1.3,2.629,3.043,6,4.344,8.273,2.275,3.93,3.368,13.414,2.275,17.639-1.389,5.289-5.17,10.874-6.323,12.469a2.223,2.223,0,0,1-1.035.768,11.277,11.277,0,0,1-6.116.148c-3.93-.975-4.4-3.575-4.4-3.575s-2.275-8.8-1.92-14.124c.354-5.289,3.309-12.114,4.461-13.355C2524.87,1167.816,2527.234,1163.531,2529.007,1160.311Z" transform="translate(-2496.749 -1159.225)" fill="#c7645d"/>
        <path id="Path_22" data-name="Path 22" d="M2442.377,1477.983l14.39-93.576a9.3,9.3,0,0,1,.354-1.507,20.4,20.4,0,0,0,9.987,4.462,22.142,22.142,0,0,0,9.839-.62,16.08,16.08,0,0,1-.266,1.655l-22.308,92.01a6.132,6.132,0,0,1-12-2.423Z" transform="translate(-2442.326 -1316.811)" fill="#2b31ba"/>
      </g>
      <g id="Group_17" data-name="Group 17" transform="translate(19.124 0)">
        <rect id="Rectangle_25" data-name="Rectangle 25" width="29.252" height="177.992" transform="translate(0 2.129) rotate(-4.173)" fill="#dadaed"/>
        <rect id="Rectangle_26" data-name="Rectangle 26" width="10.046" height="2.127" transform="translate(1.736 25.928) rotate(-4.173)" fill="#989bd7"/>
        <rect id="Rectangle_27" data-name="Rectangle 27" width="10.046" height="2.127" transform="translate(3.183 45.753) rotate(-4.173)" fill="#989bd7"/>
        <rect id="Rectangle_28" data-name="Rectangle 28" width="10.046" height="2.127" transform="translate(4.629 65.637) rotate(-4.173)" fill="#989bd7"/>
        <rect id="Rectangle_29" data-name="Rectangle 29" width="10.046" height="2.127" transform="translate(6.077 85.462) rotate(-4.173)" fill="#989bd7"/>
        <rect id="Rectangle_30" data-name="Rectangle 30" width="10.046" height="2.127" transform="translate(7.526 105.375) rotate(-4.173)" fill="#989bd7"/>
        <rect id="Rectangle_31" data-name="Rectangle 31" width="10.046" height="2.127" transform="translate(8.973 125.2) rotate(-4.173)" fill="#989bd7"/>
        <rect id="Rectangle_32" data-name="Rectangle 32" width="10.046" height="2.127" transform="translate(10.42 145.085) rotate(-4.173)" fill="#989bd7"/>
      </g>
      <g id="Group_18" data-name="Group 18" transform="translate(0 36.862)">
        <rect id="Rectangle_33" data-name="Rectangle 33" width="18.94" height="142.387" transform="translate(0 27.423) rotate(-9.928)" fill="#ffadb2"/>
        <path id="Path_23" data-name="Path 23" d="M2267.885,1284.058l-18.585,3.221,2.866-26.77,3.871-.709Z" transform="translate(-2249.292 -1259.8)" fill="#ebdbcd"/>
        <path id="Path_24" data-name="Path 24" d="M2257.434,1272.83l2.688-1.8,2.275.3,2.689-1.448-4.964-10.076-3.871.709-1.152,10.725Z" transform="translate(-2253.378 -1259.8)" fill="#ff7a82"/>
      </g>
      <path id="Path_25" data-name="Path 25" d="M2259.859,1511.5h81.609a3.557,3.557,0,0,1,3.516,3.93l-10.874,87.164a8.019,8.019,0,0,1-7.978,7.091h-51.176a8.023,8.023,0,0,1-7.978-7.091l-10.548-87.164A3.491,3.491,0,0,1,2259.859,1511.5Z" transform="translate(-2254.296 -1400.268)" fill="#ff7a82"/>
    </g>
    <g id="Component_1_1" data-name="Component 1 – 1" transform="translate(336 224)">
      <path id="Subtraction_19" data-name="Subtraction 19" d="M10.813,52.938A26.183,26.183,0,0,1,0,50.627,26.523,26.523,0,0,0,15.61,26.469,26.524,26.524,0,0,0,0,2.311,26.184,26.184,0,0,1,10.813,0,26.436,26.436,0,0,1,37.235,26.469,26.412,26.412,0,0,1,10.813,52.938Z" transform="translate(58.77 28.712)" fill="#fc4141"/>
      <g id="Group_7" data-name="Group 7">
        <path id="Subtraction_18" data-name="Subtraction 18" d="M0,173V57.964A57.145,57.145,0,0,1,4.6,35.4,57.743,57.743,0,0,1,17.134,16.977a58.8,58.8,0,0,1,82.731,0A57.744,57.744,0,0,1,112.4,35.4a57.6,57.6,0,0,1-6.018,55.868A58.606,58.606,0,0,1,79.2,112.194V85.565a32.4,32.4,0,1,0-21.6,0V115.92a57.244,57.244,0,0,1-4.67,22.239A57.42,57.42,0,0,1,40.559,156.3a57.408,57.408,0,0,1-18.251,12.221A57.251,57.251,0,0,1,0,173Z" fill="#03c3ff"/>
      </g>
    </g>
    <g id="Group_20" data-name="Group 20" transform="translate(42.072 329.475)">
      <path id="Path_26" data-name="Path 26" d="M468.52,1867.267H317.86a7.856,7.856,0,0,1-7.86-7.86v-.148a7.856,7.856,0,0,1,7.86-7.859H468.52a7.856,7.856,0,0,1,7.86,7.859v.148A7.837,7.837,0,0,1,468.52,1867.267Z" transform="translate(-234.478 -1587.013)" fill="#c5c6e3"/>
      <g id="Group_22" data-name="Group 22" transform="translate(149.36 63.199)">
        <g id="Group_20-2" data-name="Group 20">
          <path id="Path_27" data-name="Path 27" d="M653.623,1196.141c-.768-5.7-4.875-10.459-9.426-14.035-12.942-10.135-30.433-13.355-46.625-10.755-6.057.975-12.055,2.748-17.137,6.264-10.4,7.151-14.862,21.481-10.814,33.477a10.762,10.762,0,0,0,2.541,3.457c-5.023,9.573-7.978,16.665-12.262,26.5a181.99,181.99,0,0,1,32.147-19.56l1.389.768c13.562,8.273,31.409,4.255,45.03-3.871C646.739,1213.485,654.864,1205.567,653.623,1196.141Z" transform="translate(-559.9 -1170.492)" fill="#fcfaf8"/>
        </g>
        <g id="Group_21" data-name="Group 21" transform="translate(27.39 23.049)">
          <ellipse id="Ellipse_33" data-name="Ellipse 33" cx="4.964" cy="4.668" rx="4.964" ry="4.668" fill="#d6d7f0"/>
          <ellipse id="Ellipse_34" data-name="Ellipse 34" cx="4.964" cy="4.668" rx="4.964" ry="4.668" transform="translate(17.226)" fill="#d6d7f0"/>
          <ellipse id="Ellipse_35" data-name="Ellipse 35" cx="4.964" cy="4.668" rx="4.964" ry="4.668" transform="translate(33.27)" fill="#d6d7f0"/>
        </g>
      </g>
      <g id="Group_23" data-name="Group 23" transform="translate(80.902 54.245)">
        <path id="Path_28" data-name="Path 28" d="M350.928,1190.332c-9.987-2.216-18.378-15.483-21.422-23.549-1.507-4.077-1.507-9.012-.975-13.3.561-4.255,2.541-8.539,6.057-11.08a12.748,12.748,0,0,1,13.828-.355c4.137,2.63,6.412,6.205,7.357,11.435,4.137-3.516,7.505-4.609,12.794-5.437,3.871-.62,8.185-.266,11.228,2.216,3.871,3.25,4.255,9.307,2.127,13.917a44.487,44.487,0,0,1-11.08,14.448,62.912,62.912,0,0,1-19.915,11.7" transform="translate(-328.208 -1140.187)" fill="#ff5856"/>
      </g>
      <g id="Group_24" data-name="Group 24" transform="translate(113.737 176.951)">
        <path id="Path_29" data-name="Path 29" d="M450.64,1622.271l-8.746-3.516a4.109,4.109,0,0,1-2.275-5.289l10.46-25.972a4.109,4.109,0,0,1,5.289-2.275l8.746,3.516a4.109,4.109,0,0,1,2.275,5.289l-10.46,26.031A4.011,4.011,0,0,1,450.64,1622.271Z" transform="translate(-439.333 -1576.23)" fill="#676bc4"/>
        <path id="Path_30" data-name="Path 30" d="M518.577,1648.8l-17.137-6.825c-2.689-1.389-3.723-4.964-2.482-8.066l8.48-21.067a5.617,5.617,0,0,1,6.412-3.575l26.238,11.789c3.871.975,3.043,2.275,1.448,6.323l-11.376,16.044C528.091,1648.537,518.577,1648.8,518.577,1648.8Z" transform="translate(-480.973 -1593.277)" fill="#fcbf9a"/>
        <path id="Path_31" data-name="Path 31" d="M536.6,1572.3s12-6.885,15.9-9.928c3.161-2.482,6-7.091,7.919-6.885,7.978.886,3.309,9.308,1.714,11.435-2.275,3.043-9.16,9.573-9.16,9.573Z" transform="translate(-507.861 -1555.477)" fill="#fcbf9a"/>
        <path id="Path_32" data-name="Path 32" d="M536.156,1712.551l-18.112-7.151a4.662,4.662,0,0,1-2.63-6.057h0a4.662,4.662,0,0,1,6.057-2.63l18.112,7.15a4.662,4.662,0,0,1,2.63,6.057h0A4.638,4.638,0,0,1,536.156,1712.551Z" transform="translate(-492.702 -1654.75)" fill="#fcbf9a"/>
        <path id="Path_33" data-name="Path 33" d="M553.656,1687.351l-18.112-7.15a4.662,4.662,0,0,1-2.63-6.057h0a4.662,4.662,0,0,1,6.057-2.63l18.113,7.15a4.662,4.662,0,0,1,2.63,6.057h0A4.649,4.649,0,0,1,553.656,1687.351Z" transform="translate(-505.031 -1636.996)" fill="#fcbf9a"/>
        <path id="Path_34" data-name="Path 34" d="M573.056,1662.651l-18.112-7.15a4.663,4.663,0,0,1-2.63-6.057h0a4.663,4.663,0,0,1,6.057-2.63l18.112,7.151a4.662,4.662,0,0,1,2.63,6.057h0A4.76,4.76,0,0,1,573.056,1662.651Z" transform="translate(-518.699 -1619.594)" fill="#fcbf9a"/>
        <path id="Path_35" data-name="Path 35" d="M587.756,1636.551l-18.112-7.15a4.662,4.662,0,0,1-2.63-6.057h0a4.662,4.662,0,0,1,6.057-2.629l18.113,7.15a4.662,4.662,0,0,1,2.63,6.057h0A4.659,4.659,0,0,1,587.756,1636.551Z" transform="translate(-529.056 -1601.206)" fill="#fcbf9a"/>
      </g>
      <path id="Path_36" data-name="Path 36" d="M54.4,956.6l84.623,264.417H287.29L371.913,956.6Z" transform="translate(-54.4 -956.6)" fill="#fcb58a" opacity="0.18"/>
    </g>
  </g>
</svg>
