<svg xmlns="http://www.w3.org/2000/svg" xmlns:xlink="http://www.w3.org/1999/xlink" width="491" height="139" viewBox="0 0 491 139">
  <defs>
    <clipPath id="clip-logo-text">
      <rect width="491" height="139"/>
    </clipPath>
  </defs>
  <g id="logo-text" clip-path="url(#clip-logo-text)">
    <text id="pick" transform="translate(130 93)" fill="#3c1642" font-size="80" font-family="Righteous-Regular, Righteous"><tspan x="0" y="0">pick</tspan></text>
    <text id="a" transform="translate(282 93)" fill="#03c3ff" font-size="80" font-family="Righteous-Regular, Righteous"><tspan x="0" y="0">a</tspan></text>
    <text id="job" transform="translate(333 93)" fill="#3c1642" font-size="80" font-family="Righteous-Regular, Righteous"><tspan x="0" y="0">job</tspan></text>
    <g id="Group_9" data-name="Group 9" transform="translate(-554 -405)">
      <path id="Subtraction_19" data-name="Subtraction 19" d="M7.231,35.4A17.509,17.509,0,0,1,0,33.855,17.736,17.736,0,0,0,10.439,17.7,17.737,17.737,0,0,0,0,1.545,17.509,17.509,0,0,1,7.231,0,17.678,17.678,0,0,1,24.9,17.7,17.662,17.662,0,0,1,7.231,35.4Z" transform="translate(628.3 435.2)" fill="#fc4141"/>
      <g id="Group_7" data-name="Group 7">
        <path id="Subtraction_18" data-name="Subtraction 18" d="M0,116H0V38.866A38.677,38.677,0,0,1,11.423,11.383,39.06,39.06,0,0,1,74.935,23.737,38.812,38.812,0,0,1,70.923,61.2,39.1,39.1,0,0,1,52.8,75.229V57.373a21.6,21.6,0,1,0-14.4,0V77.728a38.153,38.153,0,0,1-3.053,14.9,38.278,38.278,0,0,1-8.236,12.165,38.273,38.273,0,0,1-12.192,8.2A38.161,38.161,0,0,1,0,116Z" transform="translate(589 416)" fill="#03c3ff"/>
      </g>
    </g>
  </g>
</svg>
